<svg id="Слой_1" data-name="Слой 1" xmlns="http://www.w3.org/2000/svg" viewBox="0 0 40 40"><defs><style>.cls-1{fill:#fff;}</style></defs><path class="cls-1" d="M20,40A20,20,0,1,1,40,20,20.06,20.06,0,0,1,20,40ZM20,2A18,18,0,1,0,38,20,18.05,18.05,0,0,0,20,2Z"/><path class="cls-1" d="M20.1,28.8a.91.91,0,0,1-.7-.3,1,1,0,0,1,0-1.4l7.3-7.3L24.9,18a1,1,0,0,1,1.4-1.4l2.5,2.5a1,1,0,0,1,0,1.4l-8,8A1.08,1.08,0,0,1,20.1,28.8Z"/><path class="cls-1" d="M22.1,14.8a.91.91,0,0,1-.7-.3l-2-2a1,1,0,0,1,1.4-1.4l2,2a1,1,0,0,1,0,1.4A.91.91,0,0,1,22.1,14.8Z"/><path class="cls-1" d="M14.1,28.8a.91.91,0,0,1-.7-.3,1,1,0,0,1,0-1.4l7.3-7.3-7.3-7.3a1,1,0,0,1,1.4-1.4l8,8a1,1,0,0,1,0,1.4l-8,8A.91.91,0,0,1,14.1,28.8Z"/></svg>