<svg id="Layer_1" data-name="Layer 1" xmlns="http://www.w3.org/2000/svg" viewBox="0 0 100 100"><defs><style>.cls-1{fill:#fff;}</style></defs><path class="cls-1" d="M94.71,49.29l-44-44a1,1,0,0,0-1.42,0l-44,44v0a1,1,0,0,0,0,1.38v0l44,44a1,1,0,0,0,1.42,0l44-44A1,1,0,0,0,94.71,49.29ZM49,91.59,9.6,52.19,49,64.73Zm0-28.95L7.86,49.55,49,8.41Zm2,29V64.73L90.38,52.2Zm0-28.95V8.41L92.13,49.55Z"/><path class="cls-1" d="M42.42,39.7l1.91-.64A1.07,1.07,0,0,0,45,37.74a1,1,0,0,0-1.22-.7h0l-1.91.64A1.08,1.08,0,0,0,41.16,39a1,1,0,0,0,1.22.7ZM34.8,42.26l1.9-.64a1.05,1.05,0,0,0,.65-1.32,1,1,0,0,0-1.21-.7h0l-1.91.64a1.07,1.07,0,0,0-.65,1.33,1,1,0,0,0,1.21.7Zm-7.63,2.57,1.91-.64a1.08,1.08,0,0,0,.65-1.33,1,1,0,0,0-1.22-.7h0l-1.9.64a1.07,1.07,0,0,0-.65,1.33,1,1,0,0,0,1.21.7Zm-7.62,2.56,1.91-.64a1.08,1.08,0,0,0,.65-1.33,1,1,0,0,0-1.22-.7l0,0-1.91.64a1.07,1.07,0,0,0-.65,1.32,1,1,0,0,0,1.22.7ZM11.93,50l1.9-.64A1.06,1.06,0,0,0,14.48,48a1,1,0,0,0-1.21-.7l0,0-1.91.64a1.06,1.06,0,0,0-.65,1.32,1,1,0,0,0,1.21.7Z"/><path class="cls-1" d="M58.19,37.69l-1.91-.64a1,1,0,0,0-1.24.64l0,.05a1.07,1.07,0,0,0,.65,1.32l1.91.64a1,1,0,0,0,1.24-.64l0,0A1.08,1.08,0,0,0,58.19,37.69Zm7.62,2.56-1.91-.64a1,1,0,0,0-1.24.65v0a1.05,1.05,0,0,0,.65,1.32l1.9.64a1,1,0,0,0,1.25-.64v0A1.07,1.07,0,0,0,65.81,40.25Zm7.62,2.56-1.9-.64a1,1,0,0,0-1.25.65v0a1.08,1.08,0,0,0,.65,1.33l1.91.64a1,1,0,0,0,1.24-.65v0a1.07,1.07,0,0,0-.65-1.33Zm7.63,2.57-1.91-.64a1,1,0,0,0-1.24.64l0,0a1.08,1.08,0,0,0,.65,1.33l1.91.64a1,1,0,0,0,1.24-.65l0,0A1.07,1.07,0,0,0,81.06,45.38Zm7.62,2.56-1.91-.64a1,1,0,0,0-1.24.64v0a1.06,1.06,0,0,0,.65,1.33l1.9.64a1,1,0,0,0,1.25-.64v-.05A1.06,1.06,0,0,0,88.68,47.94Z"/></svg>